<svg width="18" height="18" viewBox="0 0 18 18" fill="none" xmlns="http://www.w3.org/2000/svg">
<path d="M11.139 2.79285L11.7527 4.07789H13.7322C14.3409 4.07789 14.8343 4.55157 14.8343 5.13588V5.91938C14.8343 6.31888 14.4969 6.64274 14.0808 6.64274H3.75349C3.33735 6.64274 3 6.31888 3 5.91938V5.13588C3 4.55157 3.49341 4.07789 4.10207 4.07789H6.08164L6.69529 2.79285C6.87941 2.40721 7.28081 2.15997 7.72271 2.15997H10.1116C10.5535 2.15997 10.9548 2.40721 11.139 2.79285Z" stroke="#525866" stroke-width="1.11818" stroke-linecap="round" stroke-linejoin="round"/>
<path d="M13.68 6.69656V12.9503C13.68 14.1488 12.6805 15.1203 11.4476 15.1203H6.38746C5.15452 15.1203 4.15503 14.1488 4.15503 12.9503V6.69656" stroke="#525866" stroke-width="1.11818" stroke-linecap="round" stroke-linejoin="round"/>
<path d="M7.64941 9.22769V12.4737M10.1847 9.22769V12.4737" stroke="#525866" stroke-width="1.11818" stroke-linecap="round" stroke-linejoin="round"/>
</svg>
